# xmcd CD database file
#
# Track frame offsets:
#	180
#	18893
#	39062
#	60388
#	84208
#	117075
#	144108
#	168269
#	187283
#	205338
#	239247
#	264033
#	284161
#	301300
#
# Disc length: 4282 seconds
#
# Revision: 0
# Processed by: cddbd v1.5.1PL0 Copyright (c) Steve Scherf et al.
# Submitted via: CDex 1.51
#
DISCID=b710b80e
DTITLE=Blue Breeze - Life Ain't No Picnic
DYEAR=1900
DGENRE=Blues
TTITLE0=Love You All The Time
TTITLE1=Stormy Like A Hurricane
TTITLE2=Something Like That
TTITLE3=Paradise For Sale
TTITLE4=Life Ain't No Picnic
TTITLE5=Dreamed About My Girl
TTITLE6=Just Two Things
TTITLE7=Playin' With Idols
TTITLE8=Little Wonder Leonie
TTITLE9=Deceptive Packaging
TTITLE10=Think About It
TTITLE11=The Opener
TTITLE12=Brenz Burns
TTITLE13=Dancin' The Blues
EXTD=
EXTT0=
EXTT1=
EXTT2=
EXTT3=
EXTT4=
EXTT5=
EXTT6=
EXTT7=
EXTT8=
EXTT9=
EXTT10=
EXTT11=
EXTT12=
EXTT13=
PLAYORDER=
